<svg width="23" height="22" viewBox="0 0 23 22" fill="none" xmlns="http://www.w3.org/2000/svg">
<path d="M11.7778 22C5.71219 22 0.777832 17.0656 0.777832 11C0.777832 4.93436 5.71219 0 11.7778 0C17.8435 0 22.7778 4.93436 22.7778 11C22.7778 17.0656 17.8435 22 11.7778 22ZM11.7778 1.375C6.47033 1.375 2.15283 5.6925 2.15283 11C2.15283 16.3075 6.47033 20.625 11.7778 20.625C17.0853 20.625 21.4028 16.3075 21.4028 11C21.4028 5.6925 17.0853 1.375 11.7778 1.375Z" fill="#202020"/>
<path d="M16.5903 11.6875H6.96533C6.58583 11.6875 6.27783 11.3795 6.27783 11C6.27783 10.6205 6.58583 10.3125 6.96533 10.3125H16.5903C16.9698 10.3125 17.2778 10.6205 17.2778 11C17.2778 11.3795 16.9698 11.6875 16.5903 11.6875Z" fill="#202020"/>
<path d="M11.7778 16.5C11.3983 16.5 11.0903 16.192 11.0903 15.8125V6.1875C11.0903 5.808 11.3983 5.5 11.7778 5.5C12.1573 5.5 12.4653 5.808 12.4653 6.1875V15.8125C12.4653 16.192 12.1573 16.5 11.7778 16.5Z" fill="#202020"/>
</svg>
