<svg width="21" height="20" viewBox="0 0 21 20" fill="none" xmlns="http://www.w3.org/2000/svg">
<path d="M20.5335 18.5774L14.846 12.89C15.9477 11.5292 16.611 9.80003 16.611 7.91672C16.611 3.55177 13.0594 0.00012207 8.6944 0.00012207C4.32944 0.00012207 0.777832 3.55173 0.777832 7.91669C0.777832 12.2816 4.32948 15.8333 8.69443 15.8333C10.5777 15.8333 12.3069 15.17 13.6677 14.0683L19.3552 19.7558C19.5176 19.9182 19.731 19.9999 19.9443 19.9999C20.1577 19.9999 20.371 19.9182 20.5335 19.7558C20.8593 19.4299 20.8593 18.9033 20.5335 18.5774ZM8.69443 14.1666C5.24779 14.1666 2.4445 11.3633 2.4445 7.91669C2.4445 4.47004 5.24779 1.66675 8.69443 1.66675C12.1411 1.66675 14.9444 4.47004 14.9444 7.91669C14.9444 11.3633 12.141 14.1666 8.69443 14.1666Z" fill="#7D7D82"/>
</svg>
