<svg width="23" height="23" viewBox="0 0 23 23" fill="none" xmlns="http://www.w3.org/2000/svg">
<g clip-path="url(#clip0_1_335)">
<path d="M22.7174 21.4003L17.0373 15.811C18.5248 14.195 19.4387 12.0577 19.4387 9.70592C19.438 4.67497 15.2941 0.597168 10.182 0.597168C5.06997 0.597168 0.926132 4.67497 0.926132 9.70592C0.926132 14.7369 5.06997 18.8147 10.182 18.8147C12.3908 18.8147 14.4167 18.0507 16.0079 16.7806L21.71 22.3919C21.9878 22.6656 22.4389 22.6656 22.7167 22.3919C22.7828 22.3273 22.8353 22.2502 22.8712 22.1651C22.9071 22.08 22.9256 21.9886 22.9257 21.8962C22.9257 21.8038 22.9074 21.7124 22.8716 21.6272C22.8358 21.5421 22.7834 21.4649 22.7174 21.4003ZM10.182 17.4132C5.85668 17.4132 2.35029 13.9626 2.35029 9.70592C2.35029 5.44928 5.85668 1.9986 10.182 1.9986C14.5075 1.9986 18.0138 5.44928 18.0138 9.70592C18.0138 13.9626 14.5075 17.4132 10.182 17.4132Z" fill="white"/>
</g>
<defs>
<clipPath id="clip0_1_335">
<rect width="22" height="22" fill="white" transform="translate(0.925781 0.597168)"/>
</clipPath>
</defs>
</svg>
